<svg width="42" height="33" viewBox="0 0 42 33" fill="none" xmlns="http://www.w3.org/2000/svg">
<rect y="0.870361" width="42" height="32" rx="16" fill="#F6B03C" fill-opacity="0.05"/>
<rect x="0.5" y="1.37036" width="41" height="31" rx="15.5" stroke="#F6B03C" stroke-opacity="0.3"/>
<path fill-rule="evenodd" clip-rule="evenodd" d="M10.9009 16.8754C10.9002 17.0421 10.9002 17.2087 10.9009 17.3754H10.9029C10.9029 17.4754 10.9049 17.5734 10.9069 17.6704C10.903 17.7387 10.901 17.807 10.9009 17.8754H10.9109C10.9339 19.0604 11.0069 20.0634 11.1699 20.9034C11.3779 21.9774 11.7419 22.8404 12.3899 23.4874C13.0359 24.1344 13.8989 24.4984 14.9729 24.7074C16.0399 24.9134 17.3699 24.9754 19.0009 24.9754C20.6309 24.9754 21.9609 24.9134 23.0289 24.7064C24.1029 24.4984 24.9659 24.1344 25.6129 23.4864C26.2589 22.8404 26.6239 21.9764 26.8329 20.9034C26.9949 20.0634 27.0679 19.0604 27.0919 17.8754H27.1009C27.1009 17.8064 27.0989 17.7384 27.0949 17.6694L27.0989 17.3754H27.1009V16.8754C27.1009 15.2444 27.0389 13.9154 26.8319 12.8474C26.6239 11.7734 26.2589 10.9104 25.6119 10.2634C24.9659 9.61739 24.1019 9.25239 23.0289 9.04339C21.9619 8.83839 20.6319 8.77539 19.0009 8.77539C17.3699 8.77539 16.0409 8.83739 14.9729 9.04439C13.8989 9.25239 13.0359 9.61739 12.3889 10.2644C11.7419 10.9104 11.3779 11.7744 11.1689 12.8474C10.9639 13.9144 10.9009 15.2444 10.9009 16.8754ZM25.7809 15.5664C25.6349 14.7294 25.3429 14.2194 24.8419 13.8664C24.4189 13.5664 23.7879 13.3364 22.8219 13.1864C21.8609 13.0394 20.6169 12.9754 19.0009 12.9754C17.3859 12.9754 16.1409 13.0384 15.1789 13.1874C14.2139 13.3374 13.5829 13.5674 13.1589 13.8654C12.6589 14.2194 12.3669 14.7294 12.2209 15.5664L12.2789 15.5344C13.2309 15.0224 14.7359 14.7754 17.0009 14.7754H17.6009V15.3754C17.6009 15.7854 17.7049 16.1324 17.8989 16.3654C18.0779 16.5804 18.3949 16.7754 19.0009 16.7754C19.6069 16.7754 19.9239 16.5804 20.1019 16.3654C20.2969 16.1324 20.4009 15.7854 20.4009 15.3754V14.7754H21.0009C23.2659 14.7754 24.7709 15.0224 25.7229 15.5354L25.7809 15.5664ZM12.1069 17.6984C12.1269 18.9214 12.1969 19.8944 12.3469 20.6754C12.5299 21.6174 12.8219 22.2224 13.2369 22.6384C13.6539 23.0544 14.2589 23.3464 15.2009 23.5284C16.1489 23.7124 17.3809 23.7754 19.0009 23.7754C20.6199 23.7754 21.8529 23.7124 22.8009 23.5284C23.7429 23.3464 24.3479 23.0544 24.7639 22.6384C25.1799 22.2224 25.4719 21.6174 25.6539 20.6754C25.8049 19.8954 25.8739 18.9204 25.8939 17.6974C25.885 17.502 25.8346 17.3107 25.7459 17.1364C25.6459 16.9504 25.4729 16.7634 25.1539 16.5914C24.5379 16.2594 23.4419 16.0194 21.5469 15.9814C21.4709 16.3864 21.3109 16.7914 21.0239 17.1344C20.5779 17.6704 19.8949 17.9754 19.0009 17.9754C18.1069 17.9754 17.4239 17.6704 16.9779 17.1354C16.707 16.8019 16.5268 16.404 16.4549 15.9804C14.5599 16.0194 13.4639 16.2604 12.8479 16.5904C12.5279 16.7634 12.3559 16.9504 12.2559 17.1364C12.1668 17.311 12.116 17.5026 12.1069 17.6984ZM24.7639 11.1124C25.1619 11.5104 25.4459 12.0824 25.6299 12.9554C25.5983 12.9315 25.5663 12.9082 25.5339 12.8854C24.8949 12.4344 24.0569 12.1644 23.0069 12.0014C21.9529 11.8374 20.6349 11.7754 19.0009 11.7754C17.3659 11.7754 16.0479 11.8374 14.9949 12.0014C13.9449 12.1644 13.1059 12.4344 12.4669 12.8854C12.4348 12.9082 12.4032 12.9315 12.3719 12.9554C12.5559 12.0814 12.8399 11.5104 13.2379 11.1124C13.6529 10.6964 14.2589 10.4044 15.2009 10.2224C16.1489 10.0384 17.3809 9.97539 19.0009 9.97539C20.6199 9.97539 21.8529 10.0384 22.8009 10.2224C23.7429 10.4044 24.3479 10.6964 24.7639 11.1124Z" fill="#F6B03C"/>
</svg>
