<svg width="42" height="32" viewBox="0 0 42 32" fill="none" xmlns="http://www.w3.org/2000/svg">
<rect width="42" height="32" rx="16" fill="#F6B03C" fill-opacity="0.05"/>
<rect x="0.5" y="0.5" width="41" height="31" rx="15.5" stroke="#F6B03C" stroke-opacity="0.3"/>
<path d="M12.3334 24.1862C12.8355 24.3384 13.5137 24.3384 14.6667 24.3384H23.3333C24.4863 24.3384 25.1645 24.3384 25.6666 24.1862M12.3334 24.1862C12.2257 24.1536 12.1261 24.114 12.0317 24.0659C11.5613 23.8262 11.1788 23.4437 10.9391 22.9733C10.6667 22.4386 10.6667 21.7385 10.6667 20.3384V11.6717C10.6667 10.2716 10.6667 9.57149 10.9391 9.03672C11.1788 8.56631 11.5613 8.18386 12.0317 7.94418C12.5665 7.67169 13.2665 7.67169 14.6667 7.67169H23.3333C24.7335 7.67169 25.4335 7.67169 25.9683 7.94418C26.4387 8.18386 26.8212 8.56631 27.0608 9.03672C27.3333 9.57149 27.3333 10.2716 27.3333 11.6717V20.3384C27.3333 21.7385 27.3333 22.4386 27.0608 22.9733C26.8212 23.4437 26.4387 23.8262 25.9683 24.0659C25.8739 24.114 25.7743 24.1536 25.6666 24.1862M12.3334 24.1862C12.3336 23.5118 12.3377 23.1549 12.3974 22.8547C12.6604 21.5324 13.6941 20.4988 15.0164 20.2357C15.3384 20.1717 15.7256 20.1717 16.5 20.1717H21.5C22.2744 20.1717 22.6616 20.1717 22.9836 20.2357C24.3059 20.4988 25.3396 21.5324 25.6026 22.8547C25.6623 23.1549 25.6664 23.5118 25.6666 24.1862M22.3333 13.9217C22.3333 15.7626 20.8409 17.255 19 17.255C17.159 17.255 15.6667 15.7626 15.6667 13.9217C15.6667 12.0807 17.159 10.5884 19 10.5884C20.8409 10.5884 22.3333 12.0807 22.3333 13.9217Z" stroke="#F6B03C" stroke-width="1.25" stroke-linecap="round" stroke-linejoin="round"/>
</svg>
