<svg width="42" height="32" viewBox="0 0 42 32" fill="none" xmlns="http://www.w3.org/2000/svg">
<rect width="42" height="32" rx="16" fill="#F6B03C" fill-opacity="0.05"/>
<rect x="0.5" y="0.5" width="41" height="31" rx="15.5" stroke="#F6B03C" stroke-opacity="0.3"/>
<path d="M20.6666 7.8963V11.3384C20.6666 11.8051 20.6666 12.0385 20.7575 12.2167C20.8374 12.3735 20.9649 12.501 21.1217 12.5809C21.2999 12.6718 21.5333 12.6718 22 12.6718H25.4421M22.3333 16.8384H15.6666M22.3333 20.1717H15.6666M17.3333 13.505H15.6666M20.6666 7.67169H16.3333C14.9332 7.67169 14.2331 7.67169 13.6983 7.94418C13.2279 8.18386 12.8455 8.56631 12.6058 9.03672C12.3333 9.57149 12.3333 10.2716 12.3333 11.6717V20.3384C12.3333 21.7385 12.3333 22.4386 12.6058 22.9733C12.8455 23.4437 13.2279 23.8262 13.6983 24.0659C14.2331 24.3384 14.9332 24.3384 16.3333 24.3384H21.6666C23.0668 24.3384 23.7668 24.3384 24.3016 24.0659C24.772 23.8262 25.1545 23.4437 25.3942 22.9733C25.6666 22.4386 25.6666 21.7385 25.6666 20.3384V12.6717L20.6666 7.67169Z" stroke="#F6B03C" stroke-width="1.25" stroke-linecap="round" stroke-linejoin="round"/>
</svg>
