<svg width="42" height="33" viewBox="0 0 42 33" fill="none" xmlns="http://www.w3.org/2000/svg">
<rect y="0.5" width="42" height="32" rx="16" fill="#F6B03C" fill-opacity="0.05"/>
<rect x="0.5" y="1" width="41" height="31" rx="15.5" stroke="#F6B03C" stroke-opacity="0.3"/>
<path d="M19.833 15.6716L11.9164 23.5883M20.6817 9.45364C21.6967 10.1271 22.6723 10.9212 23.584 11.8328C24.5035 12.7524 25.3034 13.7369 25.9806 14.7614M16.7122 13.085L14.3164 12.2865C14.0405 12.1945 13.7367 12.253 13.5146 12.4409L11.1337 14.4555C10.6462 14.868 10.7847 15.6529 11.3839 15.8736L13.6399 16.7048M18.7339 21.7987L19.5651 24.0547C19.7858 24.6538 20.5707 24.7923 20.9832 24.3049L22.9978 21.9239C23.1857 21.7019 23.2442 21.398 23.1522 21.1221L22.3537 18.7264M25.1235 8.39719L21.0348 9.07865C20.5933 9.15223 20.1883 9.36924 19.8826 9.6961L14.3717 15.5871C12.9432 17.114 12.9829 19.4987 14.4615 20.9772C15.94 22.4558 18.3247 22.4955 19.8516 21.067L25.7426 15.5561C26.0695 15.2504 26.2865 14.8454 26.3601 14.4039L27.0415 10.3152C27.2295 9.18714 26.2516 8.20919 25.1235 8.39719Z" stroke="#F6B03C" stroke-width="1.25" stroke-linecap="round" stroke-linejoin="round"/>
</svg>
