<svg width="42" height="33" viewBox="0 0 42 33" fill="none" xmlns="http://www.w3.org/2000/svg">
<rect y="0.870361" width="42" height="32" rx="16" fill="#F6B03C" fill-opacity="0.05"/>
<rect x="0.5" y="1.37036" width="41" height="31" rx="15.5" stroke="#F6B03C" stroke-opacity="0.3"/>
<path d="M25.6593 8.5437C25.5499 8.54364 25.4415 8.56515 25.3404 8.60701C25.2392 8.64886 25.1473 8.71025 25.0699 8.78764C24.9926 8.86503 24.9312 8.95692 24.8893 9.05806C24.8475 9.15919 24.8259 9.26758 24.826 9.37703V9.90763C24.1232 10.7791 23.2349 11.4828 22.2258 11.9676C21.2167 12.4525 20.1122 12.7062 18.9927 12.7104H13.9927C13.3299 12.7111 12.6944 12.9747 12.2257 13.4434C11.757 13.9121 11.4934 14.5475 11.4927 15.2104V16.877C11.4934 17.5399 11.757 18.1753 12.2257 18.644C12.6944 19.1127 13.3299 19.3763 13.9927 19.377H14.3958L12.3936 24.049C12.3391 24.1758 12.3171 24.314 12.3293 24.4514C12.3415 24.5887 12.3876 24.7209 12.4635 24.836C12.5395 24.9512 12.6428 25.0456 12.7642 25.111C12.8857 25.1763 13.0214 25.2105 13.1593 25.2104H16.4927C16.6558 25.2105 16.8154 25.1626 16.9515 25.0728C17.0877 24.9829 17.1944 24.855 17.2585 24.705L19.5283 19.4087C20.5538 19.484 21.553 19.7687 22.4642 20.2453C23.3754 20.7219 24.1792 21.3802 24.826 22.1796V22.7104C24.826 22.9314 24.9138 23.1433 25.0701 23.2996C25.2264 23.4559 25.4383 23.5437 25.6593 23.5437C25.8804 23.5437 26.0923 23.4559 26.2486 23.2996C26.4049 23.1433 26.4927 22.9314 26.4927 22.7104V9.37703C26.4927 9.26758 26.4712 9.15919 26.4294 9.05806C26.3875 8.95692 26.3261 8.86503 26.2487 8.78764C26.1713 8.71024 26.0795 8.64886 25.9783 8.60701C25.8772 8.56515 25.7688 8.54364 25.6593 8.5437ZM13.9927 17.7104C13.7717 17.7102 13.5598 17.6224 13.4036 17.4661C13.2473 17.3099 13.1595 17.098 13.1593 16.877V15.2104C13.1595 14.9894 13.2473 14.7775 13.4036 14.6213C13.5598 14.465 13.7717 14.3772 13.9927 14.377H14.826V17.7104H13.9927ZM15.9434 23.5437H14.4232L16.2087 19.377H17.7288L15.9434 23.5437ZM24.826 19.8119C23.1829 18.4582 21.1216 17.7156 18.9927 17.7103H16.4927V14.377H18.9927C21.1216 14.3716 23.1829 13.6288 24.826 12.275V19.8119Z" fill="#F6B03C"/>
</svg>
