<svg width="42" height="33" viewBox="0 0 42 33" fill="none" xmlns="http://www.w3.org/2000/svg">
<rect y="0.870361" width="42" height="32" rx="16" fill="#F6B03C" fill-opacity="0.05"/>
<rect x="0.5" y="1.37036" width="41" height="31" rx="15.5" stroke="#F6B03C" stroke-opacity="0.3"/>
<path d="M15.6667 14.792H19M15.6667 17.7087H21.5M19 24.3754C23.1421 24.3754 26.5 21.0175 26.5 16.8754C26.5 12.7332 23.1421 9.37537 19 9.37537C14.8579 9.37537 11.5 12.7332 11.5 16.8754C11.5 17.873 11.6948 18.8251 12.0484 19.6958C12.1161 19.8624 12.1499 19.9457 12.165 20.0131C12.1798 20.079 12.1852 20.1277 12.1852 20.1953C12.1852 20.2643 12.1727 20.3395 12.1476 20.4898L11.6534 23.4547C11.6017 23.7652 11.5758 23.9205 11.624 24.0327C11.6661 24.131 11.7444 24.2093 11.8427 24.2514C11.9549 24.2995 12.1102 24.2737 12.4206 24.2219L15.3855 23.7278C15.5359 23.7027 15.6111 23.6902 15.6801 23.6902C15.7476 23.6902 15.7964 23.6956 15.8623 23.7104C15.9296 23.7255 16.0129 23.7593 16.1796 23.827C17.0503 24.1806 18.0024 24.3754 19 24.3754Z" stroke="#F6B03C" stroke-width="1.66667" stroke-linecap="round" stroke-linejoin="round"/>
</svg>
