<svg width="76" height="76" viewBox="0 0 76 76" fill="none" xmlns="http://www.w3.org/2000/svg">
<path d="M9.88776 66.4701V9.96509H66.3927V66.4701H9.88776Z" fill="#FFD600"/>
<path d="M46.8321 52.2601C47.9183 54.0243 49.0986 55.7147 51.5989 55.7147C53.699 55.7147 54.8009 54.671 54.8009 53.227C54.8009 51.4989 53.6614 50.8851 51.3509 49.879L50.0843 49.3391C46.4287 47.7884 43.9974 45.8452 43.9974 41.7408C43.9974 37.9581 46.8933 35.0794 51.4184 35.0794C54.6408 35.0794 56.9559 36.1954 58.626 39.118L54.68 41.6403C53.812 40.0896 52.8734 39.479 51.4184 39.479C49.9336 39.479 48.9934 40.416 48.9934 41.6403C48.9934 43.1534 49.9352 43.7655 52.1091 44.7026L53.3757 45.2425C57.6842 47.0773 60.1139 48.9514 60.1139 53.1642C60.1139 57.7034 56.529 60.1912 51.7167 60.1912C47.0095 60.1912 44.3365 57.829 42.8485 54.9048L46.8321 52.2601ZM28.6469 52.3888C29.4411 53.8108 30.6481 54.9048 32.3841 54.9048C34.0447 54.9048 35.0006 54.2488 35.0006 51.6982V35.0779H40.232V52.5018C40.232 57.7866 37.1666 60.1912 32.6902 60.1912C28.6454 60.1912 25.7259 57.4507 24.5362 54.9048L28.6469 52.3888Z" fill="#000001"/>
</svg>
