<svg width="77" height="76" viewBox="0 0 77 76" fill="none" xmlns="http://www.w3.org/2000/svg">
<g clip-path="url(#clip0_0_2445)">
<path d="M75.9499 42.7833C78.5864 22.1439 64.0107 3.2746 43.4089 0.638172C22.8071 -1.99825 3.86255 12.5774 1.22612 33.1792C-1.4103 53.781 13.1654 72.6879 33.7671 75.362C54.4066 77.9984 73.2758 63.4227 75.9499 42.7833Z" fill="#FF6C37"/>
<path d="M52.1846 24.5165L36.2907 40.4103L31.8088 35.9284C47.439 20.2982 48.9832 21.6541 52.1846 24.5165Z" fill="white"/>
<path d="M36.2911 40.7871C36.1781 40.7871 36.1027 40.7494 36.0274 40.6741L31.5078 36.1921C31.3572 36.0415 31.3572 35.8155 31.5078 35.6649C47.4017 19.771 49.0589 21.2775 52.4109 24.2906C52.4862 24.3659 52.5239 24.4412 52.5239 24.5542C52.5239 24.6672 52.4862 24.7425 52.4109 24.8178L36.517 40.6741C36.4794 40.7494 36.3664 40.7871 36.2911 40.7871ZM32.3364 35.9285L36.2911 39.8831L51.62 24.5542C48.8329 22.0684 46.9497 21.3152 32.3364 35.9285Z" fill="#FF6C37"/>
<path d="M40.8481 44.9676L36.5168 40.6363L52.4107 24.7424C56.6666 29.036 50.3015 36.0037 40.8481 44.9676Z" fill="white"/>
<path d="M40.8483 45.3443C40.7353 45.3443 40.66 45.3066 40.5847 45.2313L36.2534 40.9C36.1781 40.8247 36.1781 40.7493 36.1781 40.6364C36.1781 40.5234 36.2158 40.448 36.2911 40.3727L52.185 24.4788C52.3356 24.3282 52.5616 24.3282 52.7122 24.4788C53.6915 25.3828 54.2188 26.6633 54.1811 27.9815C54.1058 32.1621 49.3602 37.4726 41.1496 45.2313C41.0367 45.3066 40.9237 45.3443 40.8483 45.3443ZM37.0444 40.6364C39.4548 43.0845 40.4717 44.0637 40.8483 44.4403C47.1758 38.4142 53.3149 32.2375 53.3525 27.9815C53.3902 27.0023 53.0136 26.023 52.3733 25.2698L37.0444 40.6364Z" fill="#FF6C37"/>
<path d="M31.8844 36.0414L35.0858 39.2428C35.1611 39.3181 35.1611 39.3935 35.0858 39.4688C35.0481 39.5064 35.0481 39.5064 35.0105 39.5064L28.3817 40.9376C28.0428 40.9753 27.7415 40.7493 27.6661 40.4104C27.6285 40.222 27.7038 40.0337 27.8168 39.9207L31.6584 36.0791C31.7338 36.0038 31.8468 35.9661 31.8844 36.0414Z" fill="white"/>
<path d="M28.2685 41.3143C27.7036 41.3143 27.2893 40.8623 27.2893 40.2974C27.2893 40.0337 27.4023 39.7701 27.5906 39.5818L31.4322 35.7401C31.6582 35.5518 31.9595 35.5518 32.1855 35.7401L35.3869 38.9415C35.6128 39.1298 35.6128 39.4688 35.3869 39.6948C35.3115 39.7701 35.2362 39.8077 35.1232 39.8454L28.4945 41.2766C28.4192 41.2766 28.3438 41.3143 28.2685 41.3143ZM31.7712 36.4557L28.0802 40.1467C28.0049 40.222 27.9672 40.335 28.0425 40.448C28.0802 40.561 28.1932 40.5987 28.3062 40.561L34.5206 39.2051L31.7712 36.4557Z" fill="#FF6C37"/>
<path d="M60.584 15.7034C58.1735 13.3682 54.2942 13.4436 51.9591 15.8917C49.624 18.3398 49.6993 22.1814 52.1474 24.5165C54.1436 26.4374 57.1566 26.7763 59.5294 25.3451L55.2358 21.0515L60.584 15.7034Z" fill="white"/>
<path d="M56.366 26.588C52.788 26.588 49.8879 23.6879 49.8879 20.1099C49.8879 16.5319 52.788 13.6318 56.366 13.6318C58.0232 13.6318 59.6427 14.2721 60.8479 15.4397C60.9232 15.515 60.9609 15.5903 60.9609 15.7033C60.9609 15.8163 60.9232 15.8916 60.8479 15.967L55.7634 21.0515L59.7557 25.0438C59.9063 25.1944 59.9063 25.4204 59.7557 25.5711C59.718 25.6087 59.718 25.6087 59.6803 25.6464C58.7011 26.249 57.5335 26.588 56.366 26.588ZM56.366 14.4228C53.2023 14.4228 50.6412 16.9839 50.6788 20.1476C50.6788 23.3113 53.2399 25.8724 56.4036 25.8347C57.2699 25.8347 58.1362 25.6464 58.9271 25.2321L54.9724 21.3151C54.8971 21.2398 54.8595 21.1645 54.8595 21.0515C54.8595 20.9385 54.8971 20.8632 54.9724 20.7878L60.0193 15.741C59.0024 14.8747 57.7219 14.4228 56.366 14.4228Z" fill="#FF6C37"/>
<path d="M60.6968 15.8163L60.6215 15.741L55.2357 21.0515L59.4916 25.3074C59.9059 25.0438 60.3202 24.7425 60.6592 24.4035C63.0696 22.0307 63.0696 18.1891 60.6968 15.8163Z" fill="white"/>
<path d="M59.5298 25.7217C59.4168 25.7217 59.3415 25.684 59.2662 25.6087L54.9726 21.3151C54.8973 21.2398 54.8596 21.1645 54.8596 21.0515C54.8596 20.9385 54.8973 20.8632 54.9726 20.7878L60.3208 15.4396C60.4714 15.289 60.6974 15.289 60.848 15.4396L60.961 15.515C63.4845 18.0384 63.4845 22.106 60.9987 24.6671C60.6221 25.0438 60.2078 25.3827 59.7558 25.6464C59.6428 25.684 59.5675 25.7217 59.5298 25.7217ZM55.7635 21.0515L59.5675 24.8555C59.8688 24.6671 60.1701 24.4035 60.3961 24.1775C62.5429 22.0307 62.6559 18.528 60.5844 16.2682L55.7635 21.0515Z" fill="#FF6C37"/>
<path d="M52.8256 25.1944C51.9216 24.2905 50.4528 24.2905 49.5489 25.1944L35.3498 39.3934L37.7226 41.7662L52.7502 28.5841C53.7295 27.7555 53.8048 26.2867 52.9762 25.3074C52.9009 25.2697 52.8632 25.2321 52.8256 25.1944Z" fill="white"/>
<path d="M37.6842 42.1429C37.5712 42.1429 37.4959 42.1052 37.4206 42.0299L35.0478 39.6571C34.8971 39.5065 34.8971 39.2805 35.0478 39.1299L49.2468 24.9308C50.3014 23.8763 51.9962 23.8763 53.0508 24.9308C54.1054 25.9854 54.1054 27.6802 53.0508 28.7348C53.0131 28.7725 52.9755 28.8101 52.9378 28.8478L37.9102 42.0299C37.8725 42.1052 37.7972 42.1429 37.6842 42.1429ZM35.8764 39.3935L37.7219 41.239L52.4858 28.2828C53.3144 27.6049 53.3898 26.362 52.7118 25.5334C52.0339 24.7048 50.791 24.6295 49.9624 25.3075C49.9247 25.3451 49.8871 25.3828 49.8118 25.4204L35.8764 39.3935Z" fill="#FF6C37"/>
<path d="M24.4645 55.551C24.3138 55.6264 24.2385 55.777 24.2762 55.9277L24.9165 58.6394C25.0671 59.0161 24.8411 59.468 24.4268 59.581C24.1255 59.694 23.7866 59.581 23.5982 59.355L19.4553 55.2497L32.9764 41.7286L37.6466 41.804L40.8103 44.9677C40.0571 45.6079 35.4998 50.0145 24.4645 55.551Z" fill="white"/>
<path d="M24.1635 59.9576C23.8622 59.9576 23.5609 59.8446 23.3726 59.6186L19.2673 55.5133C19.192 55.438 19.1543 55.3626 19.1543 55.2497C19.1543 55.1367 19.192 55.0613 19.2673 54.986L32.7884 41.4649C32.8637 41.3896 32.9767 41.3519 33.052 41.3519L37.7223 41.4273C37.8352 41.4273 37.9106 41.4649 37.9859 41.5402L41.1496 44.704C41.2249 44.7793 41.2626 44.8923 41.2626 45.0053C41.2626 45.1183 41.2249 45.1936 41.1119 45.2689L40.8483 45.4949C36.856 48.9976 31.4325 52.5002 24.6908 55.8523L25.3311 58.5264C25.4441 59.016 25.2181 59.5433 24.7661 59.8069C24.5401 59.9199 24.3518 59.9576 24.1635 59.9576ZM20.0206 55.2497L23.8999 59.0913C24.0129 59.2796 24.2388 59.3549 24.4271 59.242C24.6155 59.129 24.6908 58.903 24.5778 58.7147L23.9375 56.0029C23.8622 55.6639 24.0129 55.3626 24.3142 55.212C30.9805 51.86 36.3664 48.3949 40.321 44.9676L37.5339 42.1805L33.2027 42.1052L20.0206 55.2497Z" fill="#FF6C37"/>
<path d="M16.2546 58.4887L19.4936 55.2496L24.3145 60.0705L16.6312 59.5432C16.2922 59.5056 16.0663 59.2043 16.1039 58.8653C16.1039 58.7147 16.1416 58.564 16.2546 58.4887Z" fill="white"/>
<path d="M24.3142 60.4096L16.5932 59.8823C16.0283 59.8447 15.6517 59.355 15.6893 58.7901C15.727 58.5641 15.8023 58.3381 15.9906 58.1875L19.2297 54.9484C19.3803 54.7978 19.6063 54.7978 19.757 54.9484L24.5778 59.7693C24.6908 59.8823 24.7285 60.033 24.6532 60.1836C24.5778 60.3343 24.4649 60.4096 24.3142 60.4096ZM19.4933 55.777L16.5179 58.7524C16.4049 58.8277 16.4049 59.0161 16.5179 59.0914C16.5556 59.1291 16.5932 59.1667 16.6686 59.1667L23.335 59.6187L19.4933 55.777Z" fill="#FF6C37"/>
<path d="M31.6581 43.461C31.4321 43.461 31.2815 43.2727 31.2815 43.0844C31.2815 42.9714 31.3191 42.8961 31.3945 42.8208L35.0478 39.1674C35.1984 39.0168 35.4244 39.0168 35.5751 39.1674L37.9479 41.5402C38.0608 41.6532 38.0985 41.7662 38.0608 41.9168C38.0232 42.0298 37.9102 42.1428 37.7595 42.1805L31.7334 43.461C31.6958 43.461 31.6581 43.461 31.6581 43.461ZM35.3114 39.9584L32.8257 42.4441L36.8933 41.5779L35.3114 39.9584Z" fill="#FF6C37"/>
<path d="M37.6472 41.8039L33.5042 42.7078C33.2029 42.7831 32.9016 42.5948 32.8263 42.2935C32.7886 42.1052 32.8263 41.9169 32.977 41.7662L35.2744 39.4688L37.6472 41.8039Z" fill="white"/>
<path d="M33.4291 43.0844C32.9018 43.0844 32.4875 42.6701 32.4875 42.1428C32.4875 41.8792 32.6005 41.6532 32.7512 41.4649L35.0486 39.1674C35.1993 39.0168 35.4252 39.0168 35.5759 39.1674L37.9487 41.5402C38.0617 41.6532 38.0993 41.7662 38.0617 41.9168C38.024 42.0298 37.911 42.1428 37.7604 42.1805L33.6174 43.0844C33.5421 43.0844 33.4668 43.0844 33.4291 43.0844ZM35.3123 39.9584L33.2784 41.9922C33.2031 42.0675 33.2031 42.1428 33.2408 42.2182C33.2784 42.2935 33.3538 42.3311 33.4668 42.3311L36.9318 41.5779L35.3123 39.9584Z" fill="#FF6C37"/>
<path d="M60.735 19.432C60.6596 19.206 60.396 19.0931 60.17 19.1684C59.944 19.2437 59.831 19.5074 59.9064 19.7333C59.9064 19.771 59.944 19.8087 59.944 19.8463C60.17 20.2983 60.0947 20.8632 59.7934 21.2775C59.6427 21.4658 59.6804 21.7295 59.8311 21.8801C60.0194 22.0308 60.283 21.9931 60.4337 21.8048C60.9986 21.0892 61.1116 20.1853 60.735 19.432Z" fill="#FF6C37"/>
</g>
<defs>
<clipPath id="clip0_0_2445">
<rect width="75.34" height="75.34" fill="white" transform="translate(0.91803 0.330078)"/>
</clipPath>
</defs>
</svg>
