<svg width="76" height="76" viewBox="0 0 76 76" fill="none" xmlns="http://www.w3.org/2000/svg">
<path d="M37.945 3.68726L5.08893 15.1217L10.2811 57.6935L37.9795 72.7489L65.8208 57.4894L71.0114 14.9192L37.945 3.68726Z" fill="#BDBDBD"/>
<path d="M67.5882 17.0704L38.0518 7.0376V69.1303L62.9015 55.5094L67.5882 17.0704Z" fill="#B71C1C"/>
<path d="M37.9562 7.00684L8.5108 17.2546L13.1991 55.7078L37.9719 69.1717L38.0488 69.1309V7.03823L37.9562 7.00684Z" fill="#DD2C00"/>
<path d="M38.0518 9.9585V24.8821L51.5157 53.9131H58.436L38.0518 9.9585Z" fill="#BDBDBD"/>
<path d="M17.6671 53.9138H24.5873L38.0512 24.8828V9.95923L17.6671 53.9138Z" fill="#EEEEEE"/>
<path d="M38.0518 38.2175H47.4693V44.4959H38.0518V38.2175Z" fill="#BDBDBD"/>
<path d="M28.6339 38.2175H38.0513V44.4959H28.6339V38.2175Z" fill="#EEEEEE"/>
</svg>
