<svg width="77" height="76" viewBox="0 0 77 76" fill="none" xmlns="http://www.w3.org/2000/svg">
<path d="M38.5962 7.36401C21.693 7.36401 7.98932 21.0676 7.98932 37.9709C7.98932 52.4232 18.0095 64.5282 31.4801 67.7372C30.7832 67.5712 30.0922 67.3852 29.4141 67.1734V60.1608C29.4141 60.1608 28.2664 60.5434 26.736 60.5434C22.4546 60.5434 20.6759 56.7235 20.2321 54.8046C19.9625 53.6357 19.2585 52.528 18.5028 51.8511C17.5999 51.0459 17.1773 51.0435 17.1714 50.7681C17.1596 50.1901 17.946 50.2136 18.3191 50.2136C20.2321 50.2136 21.6824 52.249 22.3557 53.3014C24.0238 55.8994 25.8143 56.335 26.736 56.335C27.8838 56.335 28.875 56.1631 29.5577 55.8335C29.8732 53.611 30.8621 51.631 32.4748 50.2136C25.2975 48.7786 20.2321 44.662 20.2321 37.9709C20.2321 34.5241 21.6153 31.3563 23.9202 28.7982C23.6848 28.1308 23.2927 26.7805 23.2927 24.5804C23.2927 23.1265 23.394 21.3419 24.0579 19.6068C24.0579 19.6068 28.4229 19.6374 32.5396 23.5362C34.4395 22.9829 36.4725 22.6674 38.5962 22.6674C40.7198 22.6674 42.7528 22.9829 44.6528 23.5362C48.7694 19.6374 53.1344 19.6068 53.1344 19.6068C53.8019 21.3419 53.8996 23.1265 53.8996 24.5804C53.8996 26.9524 53.5841 28.3356 53.3911 28.9324C55.6254 31.4669 56.9603 34.5853 56.9603 37.9709C56.9603 44.662 51.8949 48.7786 44.7176 50.2136C46.634 51.897 47.7782 54.3491 47.7782 57.1002V67.1734C47.1002 67.3864 46.4103 67.5712 45.7123 67.7372C59.1828 64.5282 69.203 52.4232 69.203 37.9709C69.203 21.0676 55.4994 7.36401 38.5962 7.36401ZM40.7304 68.4953C40.0253 68.5448 39.3143 68.5777 38.5962 68.5777C39.3143 68.5777 40.0241 68.5436 40.7304 68.4953ZM38.5962 68.5777C37.8781 68.5777 37.1671 68.5448 36.4619 68.4953C37.1683 68.5436 37.8781 68.5777 38.5962 68.5777ZM35.9922 68.46C34.5596 68.3388 33.154 68.1198 31.785 67.8079C33.1552 68.1186 34.5596 68.3388 35.9922 68.46Z" fill="black"/>
</svg>
