<svg width="76" height="76" viewBox="0 0 76 76" fill="none" xmlns="http://www.w3.org/2000/svg">
<path d="M37.7726 69.6089C55.1097 69.6089 69.1642 55.5543 69.1642 38.2172C69.1642 20.8801 55.1097 6.82556 37.7726 6.82556C20.4354 6.82556 6.38092 20.8801 6.38092 38.2172C6.38092 55.5543 20.4354 69.6089 37.7726 69.6089Z" fill="#1976D2"/>
<path d="M47.3462 34.1832C47.3462 34.1832 44.6308 42.6903 44.4268 43.4123C44.3483 42.6903 42.3706 27.4026 42.3706 27.4026C37.7404 27.4026 35.2761 30.683 33.9734 34.1832C33.9734 34.1832 30.6772 42.7217 30.4104 43.4437C30.3947 42.7688 29.9081 34.2774 29.9081 34.2774C29.6256 30.0081 25.733 27.4183 22.5782 27.4183L26.3766 50.5853C31.2266 50.5696 33.8321 47.2892 35.1976 43.8047C35.1976 43.8047 38.1014 36.2707 38.2269 35.9254C38.2583 36.255 40.3145 50.5853 40.3145 50.5853C45.1645 50.5853 47.7857 47.5089 49.1983 44.15L55.9789 27.4026C51.176 27.4026 48.649 30.683 47.3462 34.1832Z" fill="white"/>
</svg>
