<svg width="76" height="76" viewBox="0 0 76 76" fill="none" xmlns="http://www.w3.org/2000/svg">
<g clip-path="url(#clip0_0_2476)">
<path d="M74.1537 17.3496C74.1808 17.4499 74.1949 17.5532 74.1949 17.657V33.7961C74.1949 34.2177 73.9693 34.6071 73.6035 34.8169L60.0578 42.6158V58.0738C60.0578 58.4945 59.8342 58.8828 59.4694 59.0946L31.1937 75.3719C31.129 75.4087 31.0584 75.4322 30.9878 75.4572C30.9613 75.4661 30.9363 75.4823 30.9083 75.4896C30.7107 75.5417 30.5029 75.5417 30.3052 75.4896C30.2729 75.4808 30.2435 75.4631 30.2126 75.4514C30.1479 75.4278 30.0802 75.4072 30.0184 75.3719L1.7486 59.0946C1.38307 58.8846 1.15729 58.4953 1.15729 58.0738V9.65665C1.15729 9.55074 1.172 9.44778 1.19847 9.34775C1.2073 9.31392 1.22789 9.28303 1.23966 9.2492C1.26172 9.18742 1.28232 9.12417 1.31468 9.06681C1.33674 9.02856 1.3691 8.99767 1.39558 8.96237C1.42941 8.9153 1.4603 8.86676 1.50001 8.82557C1.53385 8.79174 1.57797 8.76674 1.61622 8.73732C1.65887 8.70201 1.69712 8.66377 1.74566 8.63582H1.74713L15.8828 0.497166C16.247 0.287566 16.6953 0.287566 17.0595 0.497166L31.1952 8.63582H31.1981C31.2452 8.66524 31.2849 8.70201 31.3275 8.73585C31.3658 8.76526 31.4084 8.79174 31.4423 8.8241C31.4835 8.86676 31.5129 8.9153 31.5482 8.96237C31.5732 8.99767 31.607 9.02856 31.6276 9.06681C31.6614 9.12564 31.6806 9.18742 31.7041 9.2492C31.7159 9.28303 31.7365 9.31392 31.7453 9.34922C31.7724 9.44946 31.7862 9.55282 31.7865 9.65665V39.8975L43.5657 33.115V17.6556C43.5657 17.5526 43.5804 17.4482 43.6069 17.3496C43.6172 17.3143 43.6363 17.2834 43.6481 17.2496C43.6716 17.1878 43.6922 17.1246 43.7245 17.0672C43.7466 17.029 43.779 16.9981 43.804 16.9628C43.8393 16.9157 43.8687 16.8671 43.9099 16.826C43.9437 16.7921 43.9864 16.7671 44.0246 16.7377C44.0687 16.7024 44.107 16.6642 44.154 16.6362H44.1555L58.2926 8.49756C58.6568 8.28765 59.1052 8.28765 59.4694 8.49756L73.605 16.6362C73.655 16.6656 73.6933 16.7024 73.7374 16.7362C73.7742 16.7657 73.8168 16.7921 73.8507 16.8245C73.8919 16.8671 73.9213 16.9157 73.9566 16.9628C73.983 16.9981 74.0154 17.029 74.036 17.0672C74.0698 17.1246 74.089 17.1878 74.1125 17.2496C74.1257 17.2834 74.1449 17.3143 74.1537 17.3496ZM71.8384 33.115V19.6943L66.8917 22.542L60.0578 26.4767V39.8975L71.8399 33.115H71.8384ZM57.7028 57.3928V43.9632L50.9806 47.8023L31.785 58.7578V72.3139L57.7028 57.3928ZM3.51372 11.6939V57.3928L29.4286 72.3124V58.7592L15.8901 51.0972L15.8857 51.0942L15.8798 51.0913C15.8342 51.0648 15.796 51.0266 15.7533 50.9942C15.7166 50.9648 15.6739 50.9412 15.6415 50.9089L15.6386 50.9045C15.6004 50.8677 15.5739 50.8221 15.5415 50.7809C15.5121 50.7412 15.4768 50.7074 15.4533 50.6662L15.4518 50.6618C15.4253 50.6176 15.4091 50.5647 15.39 50.5147C15.3709 50.4706 15.3459 50.4294 15.3341 50.3823V50.3808C15.3194 50.3249 15.3165 50.2661 15.3106 50.2087C15.3047 50.1646 15.2929 50.1205 15.2929 50.0763V50.0734V18.4763L8.46046 14.5401L3.51372 11.6954V11.6939ZM16.4726 2.87713L4.69488 9.65665L16.4697 16.4362L28.2459 9.65518L16.4697 2.87713H16.4726ZM22.5976 45.187L29.43 41.2537V11.6939L24.4833 14.5416L17.6494 18.4763V48.0362L22.5976 45.187ZM58.881 10.8775L47.1047 17.657L58.881 24.4366L70.6558 17.6556L58.881 10.8775ZM57.7028 26.4767L50.8689 22.542L45.9221 19.6943V33.115L52.7546 37.0483L57.7028 39.8975V26.4767ZM30.6053 56.7205L47.8784 46.8594L56.5128 41.9318L44.7454 35.1567L31.1966 42.957L18.8482 50.0661L30.6053 56.7205Z" fill="#FF2D20"/>
</g>
<defs>
<clipPath id="clip0_0_2476">
<rect width="75.32" height="75.32" fill="white" transform="translate(0.015686 0.340088)"/>
</clipPath>
</defs>
</svg>
