<svg width="76" height="76" viewBox="0 0 76 76" fill="none" xmlns="http://www.w3.org/2000/svg">
<path d="M40.8231 27.2303H28.2664C22.1984 27.2303 17.2794 22.3112 17.2794 16.2432C17.2794 10.1752 22.1984 5.2561 28.2664 5.2561L40.8231 5.2561V27.2303Z" fill="#E64A19"/>
<path d="M39.2535 49.2039H28.2664C22.1984 49.2039 17.2794 44.2848 17.2794 38.2168C17.2794 32.1488 22.1984 27.2297 28.2664 27.2297H39.2535V49.2039Z" fill="#7C4DFF"/>
<path d="M28.2664 71.1792C22.1984 71.1792 17.2794 66.2602 17.2794 60.1922C17.2794 54.1241 22.1984 49.2051 28.2664 49.2051H39.2535V60.1922C39.2535 66.2602 34.3344 71.1792 28.2664 71.1792Z" fill="#66BB6A"/>
<path d="M50.2391 27.2303H39.252V5.2561H50.2391C56.3071 5.2561 61.2262 10.1752 61.2262 16.2432C61.2262 22.3112 56.3071 27.2303 50.2391 27.2303Z" fill="#FF7043"/>
<path d="M50.2391 49.2039C56.3071 49.2039 61.2262 44.2848 61.2262 38.2168C61.2262 32.1488 56.3071 27.2297 50.2391 27.2297C44.1711 27.2297 39.252 32.1488 39.252 38.2168C39.252 44.2848 44.1711 49.2039 50.2391 49.2039Z" fill="#29B6F6"/>
</svg>
