<svg width="76" height="76" viewBox="0 0 76 76" fill="none" xmlns="http://www.w3.org/2000/svg">
<g clip-path="url(#clip0_0_2470)">
<path d="M21.7025 36.5264C21.7025 37.4538 21.7967 38.207 21.9756 38.7624C22.1733 39.3132 22.4275 39.9158 22.7758 40.5701C22.887 40.743 22.9474 40.9436 22.95 41.1491C22.95 41.3986 22.7994 41.6529 22.4793 41.9023L20.8976 42.9568C20.7077 43.0939 20.4819 43.1724 20.2479 43.1828C19.9937 43.1828 19.7442 43.0604 19.4947 42.8344C19.1564 42.4704 18.8537 42.0747 18.5909 41.6528C18.3108 41.1699 18.0517 40.6752 17.8141 40.17C15.8605 42.4814 13.4079 43.6394 10.4516 43.6394C8.34736 43.6394 6.66678 43.0321 5.44283 41.827C4.21417 40.6219 3.58807 39.0119 3.58807 37.0018C3.58807 34.8646 4.34127 33.1323 5.8665 31.8236C7.39644 30.5149 9.42537 29.8653 12.0051 29.8653C12.8524 29.8653 13.7327 29.9406 14.6601 30.063C15.5875 30.1901 16.5431 30.3925 17.5411 30.6185V28.7825C17.5411 26.8713 17.141 25.5391 16.3642 24.7623C15.564 23.9809 14.2082 23.6043 12.2781 23.6043C11.4025 23.6043 10.5034 23.7079 9.57601 23.9338C8.65463 24.1531 7.75006 24.4378 6.8692 24.7859C6.58481 24.9146 6.29233 25.0247 5.99361 25.1154C5.86416 25.1582 5.7296 25.1835 5.59347 25.1907C5.24041 25.1907 5.06623 24.9365 5.06623 24.4093V23.1759C5.06623 22.7758 5.1133 22.4698 5.24041 22.3003C5.43011 22.0693 5.67218 21.887 5.94653 21.7684C6.81742 21.3164 7.8719 20.9398 9.10056 20.6386C10.3245 20.309 11.6285 20.1631 13.0078 20.1631C15.9876 20.1631 18.1672 20.841 19.57 22.1968C20.9493 23.5525 21.6508 25.6144 21.6508 28.3824V36.5264H21.6978H21.7025ZM11.5296 40.3442C12.3534 40.3442 13.2055 40.1935 14.1093 39.8922C15.0085 39.591 15.8135 39.0355 16.4866 38.2823C16.8903 37.8198 17.1819 37.2705 17.3387 36.677C17.4893 36.0698 17.5929 35.3448 17.5929 34.488V33.4336C16.8326 33.2492 16.0624 33.1077 15.2862 33.0099C14.5057 32.9089 13.7195 32.857 12.9325 32.8545C11.2519 32.8545 10.0232 33.1841 9.19941 33.8619C8.37089 34.5398 7.97546 35.4954 7.97546 36.7523C7.97546 37.9292 8.27204 38.8095 8.89813 39.4168C9.50069 40.0429 10.3763 40.3442 11.5296 40.3442ZM31.6448 43.0604C31.1929 43.0604 30.8916 42.9851 30.6939 42.8062C30.4914 42.6555 30.3173 42.3072 30.1666 41.827L24.2822 22.3992C24.1662 22.0736 24.0888 21.7354 24.0516 21.3918C24.0516 20.9916 24.254 20.7657 24.6541 20.7657H27.1115C27.5822 20.7657 27.9117 20.841 28.0859 21.0152C28.2883 21.1658 28.439 21.5189 28.5896 21.9943L32.7981 38.6353L36.7053 21.9943C36.8277 21.4953 36.9784 21.1658 37.1761 21.0152C37.4781 20.8302 37.83 20.743 38.1835 20.7657H40.1842C40.6643 20.7657 40.9845 20.841 41.1869 21.0152C41.3893 21.1658 41.5635 21.5189 41.6623 21.9943L45.6213 38.8378L49.9522 21.9943C50.0326 21.6298 50.2061 21.2925 50.4559 21.0152C50.7476 20.8303 51.0905 20.7429 51.4351 20.7657H53.7653C54.1655 20.7657 54.3914 20.9681 54.3914 21.3918C54.3914 21.5189 54.3632 21.646 54.3443 21.7966C54.3039 22.0103 54.244 22.2199 54.1655 22.4227L48.1257 41.8506C47.9751 42.3543 47.8009 42.6838 47.6032 42.8344C47.3189 43.0163 46.9845 43.1036 46.6476 43.0839H44.4963C44.0208 43.0839 43.696 43.0086 43.4936 42.8344C43.2911 42.6555 43.117 42.3307 43.0181 41.827L39.1344 25.6191L35.2743 41.8082C35.1519 42.3119 35.0012 42.6367 34.8035 42.8109C34.6011 42.9898 34.248 43.0651 33.8008 43.0651H31.6448V43.0604ZM63.8347 43.7383C62.5346 43.74 61.239 43.5883 59.9745 43.2864C58.7223 42.9851 57.7479 42.6555 57.0935 42.2789C56.6934 42.053 56.4203 41.8035 56.3168 41.5728C56.2211 41.3513 56.1714 41.1127 56.1708 40.8714V39.591C56.1708 39.0637 56.3686 38.8095 56.7452 38.8095C56.8989 38.8099 57.0515 38.8353 57.1971 38.8848C57.3477 38.9366 57.5737 39.0355 57.8232 39.139C58.6705 39.5156 59.6026 39.8169 60.5771 40.0193C61.5798 40.2171 62.5542 40.3206 63.5569 40.3206C65.1386 40.3206 66.3626 40.0429 67.2146 39.4921C67.624 39.2443 67.9603 38.8925 68.1893 38.4724C68.4184 38.0523 68.532 37.579 68.5186 37.1007C68.5271 36.7778 68.4715 36.4564 68.3552 36.155C68.2388 35.8536 68.064 35.5783 67.8407 35.3448C67.3935 34.8646 66.5415 34.4363 65.3128 34.0361L61.6786 32.9063C59.8521 32.3273 58.4964 31.4705 57.6725 30.3407C56.8661 29.2968 56.426 28.0163 56.4203 26.6971C56.4203 25.6426 56.6463 24.7106 57.0935 23.9056C57.5454 23.1053 58.148 22.3992 58.9012 21.8437C59.6544 21.2694 60.5018 20.841 61.5044 20.5397C62.5071 20.2384 63.5569 20.1113 64.6585 20.1113C65.214 20.1113 65.7883 20.1349 66.339 20.2102C66.9134 20.2855 67.4406 20.3891 67.9678 20.4926C68.4668 20.615 68.947 20.7374 69.3942 20.8928C69.8461 21.0434 70.1945 21.1941 70.4487 21.3447C70.7443 21.4931 71.0019 21.7073 71.2019 21.9708C71.363 22.2159 71.4406 22.5065 71.4231 22.7993V23.9809C71.4231 24.5081 71.2254 24.7859 70.8488 24.7859C70.5154 24.7478 70.1925 24.6455 69.8979 24.4846C68.3841 23.8134 66.7425 23.4793 65.0869 23.5054C63.6605 23.5054 62.5307 23.7314 61.7539 24.2116C60.9772 24.6823 60.5771 25.4167 60.5771 26.4476C60.5771 27.149 60.8266 27.7516 61.3303 28.2318C61.8293 28.7072 62.7566 29.1827 64.0842 29.6111L67.643 30.7409C69.446 31.3199 70.75 32.1249 71.5267 33.1558C72.3035 34.1868 72.6753 35.3683 72.6753 36.677C72.6753 37.7597 72.4541 38.7342 72.0257 39.591C71.5822 40.4507 70.9593 41.2052 70.1992 41.8035C69.4225 42.4296 68.4951 42.8862 67.4171 43.211C66.2873 43.5641 65.1104 43.7383 63.8347 43.7383Z" fill="#252F3E"/>
<path fill-rule="evenodd" clip-rule="evenodd" d="M68.5663 55.9498C60.3282 62.0555 48.3523 65.2989 38.057 65.2989C23.6285 65.2989 10.6264 59.9465 0.806561 51.0493C0.029823 50.3432 0.73124 49.3876 1.65391 49.9431C12.2787 56.124 25.3797 59.8712 38.9373 59.8712C48.0746 59.8712 58.1204 57.9599 67.3659 54.0386C68.7452 53.4125 69.9221 54.9424 68.5663 55.9498Z" fill="#FF9900"/>
<path fill-rule="evenodd" clip-rule="evenodd" d="M71.9985 52.0285C70.9487 50.6774 65.0361 51.3788 62.3576 51.7036C61.5573 51.8072 61.4302 51.1011 62.1551 50.5738C66.8626 47.2551 74.6065 48.2107 75.5056 49.3169C76.4094 50.4467 75.2561 58.2141 70.8452 61.933C70.172 62.5121 69.5224 62.2155 69.8189 61.4623C70.8216 58.9673 73.053 53.3654 71.9985 52.0332V52.0285Z" fill="#FF9900"/>
</g>
<defs>
<clipPath id="clip0_0_2470">
<rect width="75.32" height="75.32" fill="white" transform="translate(0.471741 0.339844)"/>
</clipPath>
</defs>
</svg>
