<svg width="76" height="76" viewBox="0 0 76 76" fill="none" xmlns="http://www.w3.org/2000/svg">
<path d="M55.3877 35.8284C53.5623 34.3875 51.1091 33.5101 48.4314 33.5085C45.7537 33.5101 43.2988 34.3875 41.4734 35.8284C39.615 37.2959 38.3829 39.3631 38.2416 41.7096C38.0988 44.1205 39.1363 46.3634 40.9601 48.024C42.8201 49.7129 45.4696 50.774 48.4329 50.774C51.3947 50.774 54.0426 49.7129 55.8994 48.0225C57.7233 46.3634 58.7624 44.1205 58.6211 41.708C58.4798 39.3647 57.2461 37.2959 55.3877 35.8284Z" fill="#01579B"/>
<path d="M72.5575 41.2502C72.151 38.3888 71.159 35.7017 69.6365 33.2532C68.238 31.004 66.4424 29.0341 64.3047 27.3751L64.3078 27.3719L64.2497 27.3531C64.2058 27.3139 64.1713 27.2683 64.1257 27.2307L41.7592 10.6528C40.4093 9.57131 38.4317 9.78634 37.3471 11.144C36.2641 12.497 36.4823 14.4731 37.8384 15.5561L47.237 22.5219H17.0398C14.8817 22.5219 13.1159 24.2877 13.1159 26.4459C13.1159 28.6041 14.8817 30.3698 17.0398 30.3698H28.2686L5.06863 50.1497C3.4237 51.5592 3.23222 54.0391 4.64327 55.6825C5.42021 56.5881 6.51892 57.0527 7.62391 57.0527C8.52799 57.0527 9.4352 56.742 10.176 56.1078L24.2301 44.0613C24.1956 45.328 24.1689 46.4753 24.1752 46.8253C24.1752 52.344 30.3813 66.4702 48.7171 66.4702C61.7729 66.4702 72.7004 58.6223 72.7004 45.656C72.8134 44.19 72.7647 42.7177 72.5575 41.2502ZM62.597 46.3058C61.9676 48.0119 60.9489 49.6082 59.5598 51.002C56.7189 53.8586 52.7431 55.4753 48.4346 55.4816C44.1261 55.4894 40.1472 53.8853 37.3047 51.0365C35.9156 49.6474 34.8954 48.0528 34.2644 46.3498C33.6492 44.6782 33.409 42.9045 33.5675 41.1152C33.7214 39.3635 34.2456 37.6951 35.0916 36.1851C35.9219 34.7003 37.0646 33.3599 38.4725 32.2235C41.2349 30.0041 44.7492 28.8034 48.4315 28.7987C52.1137 28.794 55.6264 29.9853 58.3905 32.1953C59.7984 33.3254 60.9395 34.6611 61.7682 36.1428C62.6142 37.6511 63.14 39.318 63.2954 41.0681C63.4524 42.8606 63.2138 44.6326 62.597 46.3058Z" fill="#FF6D00"/>
</svg>
