<svg width="161" height="56" viewBox="0 0 161 56" fill="none" xmlns="http://www.w3.org/2000/svg">
<path d="M22.2411 0V11.1206H33.3617V22.2411H44.4823V33.3617H55.6028V11.1206H44.4823V0H22.2411Z" fill="#303030"/>
<path d="M11.1206 0H0V22.2411H11.1206V33.3617H0V56H11.1206V44.4823H22.2411V33.3617H33.3617V22.2411H22.2411V11.1206H11.1206V0Z" fill="#303030"/>
<path d="M33.3617 33.3617H44.4823V44.4823H33.3617V33.3617Z" fill="#303030"/>
<path d="M44.4823 44.4823H55.6028V55.6028H44.4823V44.4823Z" fill="#303030"/>
<path d="M22.2411 44.4823H33.3617V55.6028H22.2411V44.4823Z" fill="#303030"/>
<path d="M75.6347 18.76V20.92H71.0947V33H68.5947V20.92H64.0547V18.76H75.6347ZM74.718 25.86C74.958 23.54 76.458 22.36 79.238 22.36C80.518 22.36 81.558 22.62 82.318 23.12C83.078 23.64 83.478 24.42 83.478 25.48V30.72C83.478 31.02 83.498 31.22 83.578 31.32C83.658 31.44 83.798 31.48 84.018 31.48C84.178 31.48 84.338 31.48 84.538 31.44V33.04C83.938 33.2 83.458 33.26 83.058 33.26C82.078 33.26 81.518 32.86 81.378 32.02C80.498 32.86 79.298 33.26 77.758 33.26C76.678 33.26 75.838 33 75.218 32.44C74.578 31.88 74.278 31.14 74.278 30.18C74.278 29.9 74.298 29.62 74.378 29.36C74.438 29.12 74.518 28.9 74.598 28.7C74.678 28.52 74.818 28.34 75.018 28.18C75.218 28.02 75.378 27.9 75.498 27.78C75.618 27.68 75.838 27.58 76.118 27.48C76.398 27.4 76.618 27.32 76.758 27.28C76.898 27.24 77.138 27.18 77.498 27.12C77.838 27.08 78.058 27.04 78.178 27.02C78.298 27 78.538 26.96 78.898 26.92C79.698 26.82 80.258 26.74 80.558 26.66C80.838 26.58 81.038 26.48 81.158 26.32C81.238 26.22 81.298 25.98 81.298 25.58C81.298 24.54 80.578 24.02 79.178 24.02C78.418 24.02 77.878 24.16 77.538 24.44C77.178 24.72 76.958 25.2 76.878 25.86H74.718ZM81.278 27.82C81.098 27.92 80.898 28 80.678 28.08C80.438 28.16 80.258 28.2 80.118 28.22C79.978 28.24 79.758 28.26 79.458 28.3C79.158 28.34 78.958 28.38 78.878 28.38C78.598 28.42 78.378 28.46 78.218 28.5C78.058 28.54 77.858 28.58 77.618 28.66C77.378 28.74 77.198 28.84 77.078 28.96C76.958 29.08 76.838 29.22 76.758 29.42C76.658 29.62 76.618 29.84 76.618 30.1C76.618 30.6 76.778 30.98 77.098 31.24C77.418 31.52 77.878 31.64 78.478 31.64C79.478 31.64 80.258 31.38 80.818 30.82C81.118 30.52 81.278 29.92 81.278 29.04V27.82ZM88.1113 18.76V33H85.8513V18.76H88.1113ZM99.6755 29.78C99.4155 30.9 98.8555 31.78 98.0155 32.4C97.1755 33.04 96.1555 33.34 94.9955 33.34C93.4355 33.34 92.1955 32.84 91.2755 31.84C90.3555 30.84 89.9155 29.54 89.9155 27.96C89.9155 26.36 90.3755 25.02 91.3155 23.96C92.2555 22.92 93.4555 22.38 94.9155 22.38C96.4155 22.38 97.6155 22.9 98.4955 23.94C99.3755 24.98 99.8155 26.38 99.8155 28.16V28.4H92.1955C92.2155 29.44 92.4755 30.26 92.9755 30.82C93.4555 31.38 94.1555 31.66 95.0355 31.66C95.6555 31.66 96.1555 31.52 96.5555 31.22C96.9555 30.92 97.2555 30.44 97.4955 29.78H99.6755ZM97.5355 26.88C97.4555 26.02 97.1955 25.34 96.7155 24.84C96.2355 24.34 95.6355 24.08 94.8955 24.08C94.1355 24.08 93.5355 24.32 93.0755 24.8C92.6155 25.28 92.3355 25.98 92.2355 26.88H97.5355ZM103.569 22.68V24.2C104.389 23 105.529 22.4 106.989 22.4C108.149 22.4 109.029 22.72 109.609 23.36C110.189 24 110.489 24.92 110.489 26.12V33H108.209V27C108.209 26.6 108.189 26.26 108.149 25.98C108.109 25.7 108.009 25.42 107.889 25.14C107.769 24.86 107.569 24.66 107.289 24.52C107.009 24.38 106.649 24.3 106.209 24.3C104.529 24.3 103.689 25.36 103.689 27.44V33H101.409V22.68H103.569ZM117.753 22.68V24.34H115.673V29.78C115.673 30.1 115.673 30.34 115.693 30.46C115.693 30.58 115.733 30.72 115.813 30.88C115.873 31.04 115.993 31.14 116.153 31.18C116.313 31.24 116.553 31.26 116.853 31.26C117.213 31.26 117.513 31.26 117.753 31.22V33.02C117.293 33.08 116.773 33.1 116.213 33.1C115.813 33.1 115.453 33.08 115.153 33.02C114.853 32.96 114.613 32.88 114.413 32.8C114.213 32.72 114.033 32.6 113.913 32.4C113.773 32.2 113.673 32.04 113.593 31.92C113.513 31.8 113.473 31.56 113.433 31.24C113.393 30.92 113.393 30.68 113.393 30.52V29.64V29.52V29.4V29.26V24.34H111.673V22.68H113.393V19.58H115.673V22.68H117.753ZM134.313 18.76V33H131.933V22.02L127.973 33H125.933L121.873 22.02V33H119.513V18.76H123.013L126.993 29.9L130.833 18.76H134.313ZM143.627 18.74L149.127 33H146.447L145.087 29.22H139.447L138.047 33H135.467L140.967 18.74H143.627ZM144.427 27.34L142.307 21.34L140.087 27.34H144.427ZM160.047 30.84V33H150.287V18.76H152.807V30.84H160.047Z" fill="#303030"/>
</svg>
